<svg id="Layer_1" enable-background="new 0 0 512 512" height="512" viewBox="0 0 512 512" width="512" xmlns="http://www.w3.org/2000/svg"><g><g><path d="m240.936 132.141-8.485 8.485c-2.929 2.93-2.929 7.678 0 10.607 1.465 1.464 3.385 2.196 5.304 2.196s3.839-.732 5.304-2.196l8.485-8.485c2.929-2.93 2.929-7.678 0-10.607-2.931-2.928-7.679-2.928-10.608 0z"/><path d="m369.252 260.457-8.485 8.485c-2.929 2.93-2.929 7.678 0 10.607 1.465 1.464 3.385 2.196 5.304 2.196s3.839-.732 5.304-2.196l8.485-8.485c2.929-2.93 2.929-7.678 0-10.607-2.93-2.928-7.678-2.928-10.608 0z"/><path d="m314.32 228.96c4.132-.283 7.252-3.863 6.969-7.996-.284-4.132-3.865-7.245-7.996-6.969-8.693.581-15.885-6.585-15.288-15.288.283-4.133-2.837-7.713-6.969-7.996-4.135-.274-7.713 2.837-7.996 6.969-1.216 17.732 13.473 32.493 31.28 31.28z"/><path d="m511.388 190.815c-1.132-14.74-17.429-23.165-30.131-15.592-19.75 11.773-42.99 16.753-66.14 14.072 5.35-11.971 4.671-27.796-5.351-39.798l2.655-3.03c11.499-13.096 10.845-33.034-1.49-45.392-12.326-12.347-32.265-13.01-45.396-1.505l-3.032 2.657c-11.32-9.482-26.599-11.152-39.761-4.993-2.815-23.593 2.371-46.93 14.033-66.488 7.643-12.827-1.083-29.018-15.605-30.132-5.334-.407-10.762-.614-16.133-.614-50.654 0-103.258 20.735-140.712 55.468-3.037 2.816-3.216 7.562-.399 10.599 2.815 3.037 7.562 3.217 10.599.399 34.752-32.227 83.542-51.466 130.512-51.466 4.99 0 10.032.192 14.985.572 3.582.273 5.768 4.305 3.866 7.495-4.073 6.832-7.433 14.039-10.06 21.502-96.252-4.998-175.762 74.252-170.756 170.76-7.466 2.627-14.674 5.986-21.505 10.058-3.229 1.926-7.23-.331-7.507-3.946-3.721-48.583 11.3-96.569 40.882-133.801 2.577-3.243 2.037-7.962-1.206-10.538-3.244-2.577-7.962-2.036-10.538 1.206-31.853 40.09-48.107 91.802-44.095 144.275 1.111 14.522 17.245 23.372 30.144 15.689 14.427-8.602 30.779-13.588 47.634-14.592-4.871 11.779-3.574 26.004 4.789 36.991l-160.091 140.271c-13.916 12.366-21.579 29.275-21.579 47.615 0 18.29 7.879 35.686 21.618 47.727 11.567 10.135 26.398 15.716 41.761 15.716 18.281 0 35.671-7.88 47.709-21.62l59.659-68.09c2.73-3.115 2.417-7.854-.698-10.583-3.114-2.729-7.854-2.419-10.583.698l-59.659 68.09c-9.192 10.489-22.469 16.505-36.428 16.505-11.725 0-23.045-4.261-31.875-11.998-10.488-9.192-16.504-22.477-16.504-36.445 0-13.995 5.875-26.923 16.503-36.367l160.532-140.656 48.43 48.429-61.228 69.88c-2.73 3.115-2.417 7.854.698 10.583 3.115 2.73 7.854 2.417 10.583-.698l60.807-69.399c11.152 8.5 25.513 9.491 36.994 4.882-1.021 16.888-6.097 33.292-14.592 47.543-7.597 12.743.911 29.014 15.689 30.144 119.326 9.105 222.584-84.884 222.584-206.148 0-5.286-.206-10.646-.612-15.935zm-58.63 11.501c2.671 84.607-66.977 154.564-151.948 151.939 2.176-10.081 3.032-20.36 2.583-30.689l101.635-120.636c15.79 2.963 32.056 2.753 47.73-.614zm-77.337-91.462c7.2-6.311 18.134-5.951 24.894.82 6.771 6.783 7.138 17.72.83 24.903l-1.9 2.168-25.993-25.992zm-217.511 100.31c-2.468-84.831 66.863-154.22 151.751-151.756-3.257 15.26-3.642 31.297-.591 47.566-18.188 15.323-103.702 87.365-120.639 101.635-10.264-.442-20.329.38-30.521 2.555zm100.16 105.19-62.427-62.426c-8.721-8.721-8.796-22.797-.209-31.607.174-.147 126.709-106.745 126.878-106.897 10.806-9.715 23.964-8.433 32.117-.278l42.426 42.425c10.077 10.077 7.217 25.605.423 31.429-.717.614 5.339-6.489-107.264 127.166-6.597 7.833-22.057 10.075-31.944.188zm32.49 81.585c-3.691-.282-5.835-4.34-3.948-7.506 4.012-6.73 7.351-13.895 9.985-21.355 96.294 5.22 176.189-74.573 170.984-170.969 7.438-2.63 14.603-5.975 21.358-10.001 3.14-1.873 7.213.217 7.494 3.857.376 4.906.567 9.881.567 14.785 0 111.958-95.263 199.683-206.44 191.189z"/></g></g></svg>