<?xml version="1.0" encoding="iso-8859-1"?>
<!-- Generator: Adobe Illustrator 19.0.0, SVG Export Plug-In . SVG Version: 6.00 Build 0)  -->
<svg version="1.1" id="Capa_1" xmlns="http://www.w3.org/2000/svg" xmlns:xlink="http://www.w3.org/1999/xlink" x="0px" y="0px"
	 viewBox="0 0 512 512" style="enable-background:new 0 0 512 512;" xml:space="preserve">
<g>
	<g>
		<path d="M367.309,121.068c-4.424-4.424-10.306-6.86-16.563-6.86c-6.256,0-12.138,2.436-16.563,6.86
			c-9.132,9.132-9.132,23.991,0.001,33.125c4.567,4.565,10.565,6.848,16.562,6.848c5.998,0,11.996-2.283,16.563-6.849
			C376.441,145.059,376.441,130.2,367.309,121.068z M356.701,143.586c-3.282,3.284-8.626,3.284-11.91,0
			c-3.284-3.285-3.284-8.628-0.001-11.911c1.592-1.591,3.707-2.467,5.956-2.467c2.25,0,4.364,0.876,5.955,2.467
			C359.985,134.959,359.985,140.302,356.701,143.586z"/>
	</g>
</g>
<g>
	<g>
		<path d="M406.928,160.686c-9.134-9.132-23.992-9.131-33.125,0.001c-9.131,9.132-9.131,23.992,0,33.124
			c4.566,4.566,10.563,6.849,16.563,6.849c5.997,0,11.996-2.284,16.562-6.849h0.001C416.06,184.679,416.06,169.819,406.928,160.686z
			 M396.321,183.204c-3.285,3.284-8.628,3.283-11.911,0c-3.284-3.284-3.284-8.627,0-11.911c1.642-1.642,3.798-2.462,5.955-2.462
			c2.156,0,4.314,0.821,5.955,2.462C399.604,174.577,399.603,179.92,396.321,183.204z"/>
	</g>
</g>
<g>
	<g>
		<path d="M331.493,156.883c-9.133-9.132-23.99-9.132-33.125,0c-9.131,9.132-9.131,23.992,0.001,33.125
			c4.566,4.566,10.564,6.849,16.562,6.849c5.998,0,11.996-2.283,16.563-6.849C340.624,180.875,340.624,166.016,331.493,156.883z
			 M320.886,179.401c-3.283,3.283-8.627,3.284-11.91,0c-3.284-3.284-3.284-8.627-0.001-11.911c1.643-1.642,3.8-2.463,5.956-2.463
			c2.157,0,4.313,0.821,5.955,2.462C324.17,170.774,324.17,176.117,320.886,179.401z"/>
	</g>
</g>
<g>
	<g>
		<path d="M371.112,196.501c-9.134-9.131-23.992-9.131-33.125,0.001c-9.131,9.132-9.131,23.992,0,33.124
			c4.566,4.566,10.563,6.849,16.563,6.849c5.997,0,11.996-2.284,16.562-6.849h0.001
			C380.244,220.494,380.244,205.634,371.112,196.501z M360.506,219.02c-3.286,3.285-8.629,3.283-11.911,0
			c-3.284-3.284-3.284-8.627,0-11.911c1.642-1.642,3.798-2.462,5.955-2.462c2.156,0,4.313,0.821,5.955,2.462
			C363.789,210.392,363.788,215.736,360.506,219.02z"/>
	</g>
</g>
<g>
	<g>
		<path d="M498.175,158.81l-63.119-11.803c-1.152-3.359-2.509-6.64-4.067-9.831l36.326-52.949c4.688-6.833,3.87-15.698-1.989-21.557
			c-5.86-5.86-14.726-6.677-21.559-1.991l-12.321,8.454c-3.415,2.344-4.284,7.012-1.941,10.428
			c2.344,3.414,7.011,4.285,10.428,1.941l12.32-8.454c0.363-0.249,1.327-0.911,2.466,0.228c1.138,1.138,0.477,2.102,0.228,2.465
			l-32.531,47.418c-2.477-3.297-5.196-6.447-8.163-9.415c-2.968-2.968-6.118-5.687-9.416-8.164l9.638-6.612
			c3.415-2.343,4.284-7.012,1.941-10.427c-2.345-3.416-7.012-4.286-10.428-1.942l-15.169,10.407
			c-3.15-1.538-6.389-2.882-9.703-4.025l-11.705-63.135c-1.511-8.148-8.353-13.843-16.64-13.85c-0.005,0-0.009,0-0.014,0
			c-8.279,0-15.124,5.683-16.646,13.824l-11.803,63.118c-3.338,1.145-6.6,2.491-9.772,4.037l-52.919-36.366
			c-6.828-4.692-15.694-3.882-21.559,1.973c-5.865,5.855-6.689,14.719-2.007,21.556l36.285,52.978
			c-1.551,3.169-2.905,6.427-4.055,9.763l-63.135,11.704c-8.148,1.511-13.843,8.354-13.85,16.64
			c-0.006,8.287,5.679,15.138,13.823,16.661l59.87,11.196c-0.069,0.068-0.141,0.131-0.21,0.199l-9.681,9.681
			c-6.12,6.12-8.67,14.475-7.664,22.463l-62.662,62.662c-2.929,2.929-2.929,7.678,0,10.606c1.465,1.464,6.675,3.789,10.607,0
			l58.69-58.69c0.332,0.37,21.748,21.767,22.221,22.179L128.696,421.778l-22.2-22.2l67.077-67.077c2.929-2.929,2.929-7.678,0-10.606
			c-2.93-2.929-7.678-2.929-10.607,0l-69.652,69.652c-6.274-1.11-11.165-0.121-17.811,5.578c-7.446,6.385-6.193,17.066-5.99,18.223
			l-10.118,10.119c-6.119,6.12-9.102,14.202-8.963,22.24c-13.697,0.095-30.931,3.784-37.5,6.647
			c-10.899,4.75-15.884,17.436-11.134,28.335c3.53,8.099,11.702,17.704,28.335,11.134c6.682-2.912,21.498-13.323,30.872-23.456
			c5.566,4.832,12.619,7.477,20.097,7.477c8.218,0,15.927-3.184,21.706-8.963l10.114-10.114c1.171,0.207,9.209,2.76,18.227-5.994
			c7.736-7.509,5.777-16.649,5.574-17.806L293.07,278.62c0.964,0.103,11.979,3.438,21.966-7.724l9.68-9.68
			c0.033-0.033,0.063-0.068,0.096-0.1l11.074,59.734c1.511,8.148,8.354,13.843,16.64,13.849c0.005,0,0.009,0,0.014,0
			c8.279,0,15.124-5.683,16.646-13.823l11.803-63.118c3.338-1.145,6.599-2.491,9.771-4.036l52.919,36.366
			c2.966,2.038,6.314,3.038,9.636,3.038c4.327,0,8.605-1.698,11.924-5.011c5.863-5.855,6.688-14.719,2.006-21.556l-36.285-52.978
			c1.551-3.169,2.905-6.427,4.055-9.763l63.135-11.705c8.147-1.51,13.843-8.353,13.85-16.639
			C512.007,167.188,506.32,160.333,498.175,158.81z M266.405,187.71l-56.525-10.571c-0.434-0.08-1.583-0.295-1.582-1.904
			c0.002-1.609,1.151-1.823,1.584-1.903l56.539-10.482c-0.586,4.104-0.893,8.277-0.893,12.497
			C265.528,179.522,265.831,183.649,266.405,187.71z M41.511,468.125c-7.56,6.312-14.711,10.786-17.373,11.946
			c-5.307,1.988-7.552-0.992-8.591-3.376c-0.94-2.156-1.049-6.352,3.376-8.591c3.959-1.725,17.043-4.758,28.532-5.314
			C45.825,464.38,43.861,466.163,41.511,468.125z M92.201,458.273c-9.857,7.81-19.254,2.946-22.2,0
			c-6.121-6.121-6.121-16.08,0-22.201l7.538-7.538l22.201,22.201L92.201,458.273z M120.542,442.164c0,0-3.384,3.964-7.742,0.417
			l-27.108-27.108c-3.224-4.204,0.418-7.743,0.418-7.743c1.01-1.01,4.611-2.62,7.325,0l27.107,27.107
			C123.362,437.752,121.511,441.195,120.542,442.164z M350.855,32.577c0.081-0.432,0.296-1.581,1.902-1.581c0.001,0,0.002,0,0.003,0
			c1.608,0.001,1.822,1.151,1.902,1.584l10.482,56.539c-4.105-0.586-8.278-0.893-12.498-0.893c-4.174,0-8.301,0.303-12.363,0.877
			L350.855,32.577z M250.427,75.662c-0.248-0.363-0.909-1.328,0.229-2.465c1.141-1.137,2.103-0.474,2.465-0.225l47.391,32.567
			c-3.317,2.488-6.484,5.221-9.468,8.205c-2.952,2.952-5.656,6.085-8.122,9.362L250.427,75.662z M304.429,260.288
			c-4.664,4.663-12.254,4.664-16.918,0l-19.803-19.803c-4.665-4.665-4.665-12.254,0-16.918l7.754-7.754
			c4.044,7.692,9.262,14.818,15.582,21.138s13.446,11.538,21.138,15.583L304.429,260.288z M354.44,318.117
			c-0.081,0.432-0.296,1.58-1.902,1.58h-0.002c-1.609-0.001-1.823-1.151-1.903-1.583l-10.482-56.539
			c4.104,0.586,8.276,0.893,12.497,0.893c4.175,0,8.302-0.303,12.364-0.877L354.44,318.117z M352.648,247.468
			c-19.264,0-37.375-7.502-50.996-21.124c-13.622-13.622-21.124-31.733-21.124-50.997c0-19.264,7.502-37.375,21.124-50.997
			c13.621-13.622,31.732-21.124,50.996-21.124c19.265,0,37.376,7.502,50.997,21.124c13.622,13.622,21.124,31.733,21.124,50.997
			s-7.502,37.375-21.124,50.997C390.024,239.966,371.913,247.468,352.648,247.468z M454.869,275.033
			c0.248,0.363,0.909,1.328-0.229,2.464c-1.14,1.138-2.102,0.475-2.465,0.226l-47.391-32.567c3.317-2.488,6.484-5.221,9.469-8.205
			c2.952-2.952,5.656-6.085,8.122-9.362L454.869,275.033z M495.414,177.362l-56.539,10.482c0.586-4.104,0.893-8.276,0.893-12.496
			c0-4.175-0.303-8.302-0.877-12.364l56.525,10.571c0.433,0.081,1.582,0.296,1.581,1.905
			C496.997,177.069,495.847,177.281,495.414,177.362z"/>
	</g>
</g>
<g>
</g>
<g>
</g>
<g>
</g>
<g>
</g>
<g>
</g>
<g>
</g>
<g>
</g>
<g>
</g>
<g>
</g>
<g>
</g>
<g>
</g>
<g>
</g>
<g>
</g>
<g>
</g>
<g>
</g>
</svg>
