<?xml version="1.0" encoding="iso-8859-1"?>
<!-- Generator: Adobe Illustrator 19.0.0, SVG Export Plug-In . SVG Version: 6.00 Build 0)  -->
<svg version="1.1" id="Capa_1" xmlns="http://www.w3.org/2000/svg" xmlns:xlink="http://www.w3.org/1999/xlink" x="0px" y="0px"
	 viewBox="0 0 512 512" style="enable-background:new 0 0 512 512;" xml:space="preserve">
<g>
	<g>
		<path d="M108.44,186.54c-0.13-0.64-0.32-1.27-0.57-1.87c-0.25-0.61-0.56-1.19-0.92-1.73c-0.37-0.55-0.79-1.06-1.25-1.52
			c-0.46-0.46-0.97-0.88-1.52-1.24c-0.54-0.36-1.12-0.67-1.721-0.92c-0.609-0.25-1.229-0.44-1.87-0.57
			c-0.649-0.13-1.31-0.2-1.96-0.2c-0.649,0-1.309,0.07-1.949,0.2c-0.641,0.13-1.27,0.32-1.87,0.57c-0.61,0.25-1.19,0.56-1.73,0.92
			c-0.55,0.36-1.06,0.78-1.52,1.24c-0.46,0.46-0.88,0.97-1.24,1.52c-0.36,0.54-0.67,1.12-0.92,1.73c-0.25,0.6-0.44,1.23-0.57,1.87
			c-0.129,0.64-0.189,1.3-0.189,1.95c0,0.65,0.059,1.31,0.189,1.96c0.13,0.63,0.32,1.26,0.57,1.87c0.25,0.6,0.56,1.18,0.92,1.72
			c0.36,0.55,0.78,1.06,1.24,1.52s0.97,0.88,1.52,1.25c0.54,0.36,1.12,0.67,1.73,0.92c0.599,0.25,1.229,0.44,1.87,0.57
			c0.639,0.13,1.3,0.19,1.949,0.19c0.66,0,1.311-0.06,1.96-0.19c0.641-0.13,1.261-0.32,1.87-0.57c0.601-0.25,1.181-0.56,1.721-0.92
			c0.55-0.37,1.06-0.79,1.52-1.25C108.03,193.24,109.089,189.79,108.44,186.54z"/>
	</g>
</g>
<g>
	<g>
		<path d="M416.302,140.315l16.032,16.032c2.324,2.325,5.643,3.358,8.876,2.765c3.233-0.594,5.969-2.738,7.316-5.736L511.121,14.1
			c1.702-3.787,0.887-8.233-2.05-11.171c-2.937-2.937-7.383-3.752-11.171-2.05L358.626,63.476c-2.998,1.348-5.143,4.083-5.736,7.316
			c-0.11,0.602-0.164,1.205-0.164,1.806c0,2.627,1.037,5.178,2.929,7.071l16.016,16.016c-4.784,1.715-9.168,4.481-12.868,8.181
			c-6.331,6.33-9.929,14.665-10.201,23.573c-3.227-0.717-6.74,0.18-9.25,2.69c-1.952,1.953-2.929,4.512-2.929,7.071
			c0,2.559,0.977,5.119,2.929,7.071l7.119,7.119l-28.459,28.459c-5.055-26.431-17.898-50.802-37.252-70.157
			c-35.003-35.002-86.263-48.118-133.778-34.23l-33.973,9.933c-17.71,5.176-36.816,0.287-49.862-12.758
			c-6.316-6.317-14.725-9.796-23.675-9.796c-8.95,0-17.358,3.479-23.676,9.796c-6.526,6.527-9.79,15.101-9.79,23.675
			c0,8.574,3.264,17.148,9.79,23.676c30.353,30.351,74.801,41.725,116.002,29.682l33.974-9.933
			c24.023-7.021,49.94-0.39,67.638,17.307c12.84,12.84,19.963,29.911,20.058,48.068l0.104,20.012
			c0.028,5.522,1.412,10.739,3.833,15.335l-46.332,46.332l-78.74-78.74c-3.905-3.905-10.237-3.905-14.143,0
			c-1.952,1.953-2.929,4.512-2.929,7.071s0.977,5.119,2.929,7.071l78.74,78.74l-9.207,9.206l-68.163,1.677
			c-2.566,0.063-5.01,1.111-6.825,2.926L2.929,424.544C1.025,426.449,0,429.004,0,431.616c0,1.005,0.151,2.019,0.463,3.006
			c1.121,3.557,4.129,6.193,7.801,6.841l52.941,9.332l9.332,52.941c0.647,3.673,3.285,6.68,6.842,7.801
			c3.556,1.122,7.442,0.171,10.078-2.465l109.805-109.806c1.815-1.815,2.862-4.259,2.926-6.825l1.676-68.161l9.207-9.207
			c0,0,179.621,179.809,180.944,181.133c13.055,13.054,34.296,13.054,47.351,0c6.316-6.317,9.796-14.725,9.796-23.676
			c0-8.95-3.479-17.358-9.796-23.675c-13.047-13.047-17.935-32.15-12.758-49.86l9.932-33.978
			c13.887-47.511,0.772-98.771-34.229-133.775c-19.354-19.354-43.725-32.196-70.156-37.252l28.459-28.459l7.118,7.118
			c3.905,3.905,10.237,3.905,14.143,0c2.51-2.51,3.406-6.023,2.689-9.249c8.908-0.273,17.242-3.87,23.573-10.2
			C411.9,149.437,414.621,145.022,416.302,140.315z M66.449,431.41l-35.793-6.308l36.792-36.792l43.163-1.062L66.449,431.41z
			 M123.692,444.553l-36.793,36.792l-6.309-35.792l44.163-44.162L123.692,444.553z M87.959,367.799l36.09-36.09l43.162-1.062
			l-36.09,36.09L87.959,367.799z M180.292,387.952l-36.09,36.09l1.061-43.162l36.091-36.09L180.292,387.952z M247.551,142.899
			c-22.866-22.865-56.353-31.434-87.393-22.362l-33.974,9.934c-34.185,9.992-71.063,0.555-96.247-24.627
			c-5.259-5.257-5.257-13.81,0-19.066c2.539-2.54,5.925-3.938,9.533-3.938c3.607,0,6.993,1.398,9.532,3.938
			c18.215,18.214,44.891,25.04,69.617,17.813l33.973-9.933C193.09,82.821,236.781,94,266.615,123.834
			c19.882,19.881,31.701,45.968,33.556,73.853l-26.607,26.606l-0.098-19.288C273.344,181.546,264.14,159.489,247.551,142.899z
			 M372.265,346.228l-9.933,33.978c-3.177,10.868-4.724,21.955-4.724,32.957c0,7.511,0.723,14.979,2.14,22.303L225.213,300.93
			l46.332-46.332c4.595,2.421,9.811,3.805,15.332,3.833l20.014,0.104c18.157,0.094,35.229,7.217,48.068,20.056
			C372.656,296.289,379.287,322.206,372.265,346.228z M388.167,245.384c21.966,21.966,33.818,51.441,33.818,81.625
			c0,10.812-1.521,21.716-4.644,32.396l-9.932,33.978c-7.226,24.723-0.401,51.398,17.813,69.614c2.54,2.54,3.938,5.925,3.938,9.533
			c0,3.608-1.398,6.994-3.938,9.533c-5.256,5.256-13.81,5.256-19.065,0C380.974,456.88,371.535,420,381.53,385.817l9.933-33.978
			c9.072-31.038,0.504-64.523-22.36-87.39c-16.591-16.589-38.647-25.792-62.107-25.914l-19.286-0.1l26.607-26.607
			C342.2,213.683,368.287,225.503,388.167,245.384z M482.086,29.915l-45.861,102.04l-56.178-56.179L482.086,29.915z
			 M393.993,139.058c-2.812,2.812-6.55,4.36-10.525,4.36c-3.975,0-7.713-1.548-10.524-4.36s-4.36-6.549-4.36-10.525
			c-0.001-3.976,1.547-7.714,4.36-10.526c2.812-2.811,6.549-4.359,10.524-4.359s7.714,1.548,10.525,4.36
			c2.902,2.902,4.353,6.713,4.353,10.525C398.346,132.344,396.895,136.157,393.993,139.058z"/>
	</g>
</g>
<g>
</g>
<g>
</g>
<g>
</g>
<g>
</g>
<g>
</g>
<g>
</g>
<g>
</g>
<g>
</g>
<g>
</g>
<g>
</g>
<g>
</g>
<g>
</g>
<g>
</g>
<g>
</g>
<g>
</g>
</svg>
