<svg id="Capa_1" enable-background="new 0 0 512 512" height="512" viewBox="0 0 512 512" width="512" xmlns="http://www.w3.org/2000/svg"><g><g><path d="m412.047 148.743c-1.843-3.709-6.344-5.222-10.054-3.38-3.709 1.843-5.223 6.344-3.38 10.054 23.727 47.76 35.757 96.217 35.757 144.023 0 .298-.157 30.158-13.738 64.307-9.968 25.064-24.193 45.586-42.509 61.444 8.365-11.341 15.134-24.29 20.124-38.654 9-25.906 9.103-47.155 9.103-48.047 0-49.949-16.602-92.979-30.529-120.282-15.084-29.57-30.058-47.241-30.688-47.979-1.714-2.008-4.356-2.968-6.958-2.524-2.602.441-4.78 2.218-5.736 4.677l-6.142 15.799c-34.73-44.478-65.278-80.123-65.606-80.506-1.425-1.66-3.503-2.615-5.691-2.615s-4.267.955-5.691 2.615c-.328.383-30.876 36.028-65.606 80.506l-6.142-15.799c-.957-2.46-3.136-4.236-5.738-4.677-2.603-.445-5.246.52-6.958 2.527-.486.57-12.058 14.229-25.118 37.554-2.024 3.614-.734 8.185 2.88 10.208 3.613 2.023 8.185.735 10.208-2.88 5.824-10.401 11.371-18.812 15.605-24.795l6.08 15.639c.98 2.521 3.243 4.32 5.921 4.706 2.678.378 5.356-.701 7.009-2.845 28.763-37.309 56.066-70.058 67.55-83.669 11.484 13.611 38.788 46.36 67.55 83.669 1.652 2.144 4.333 3.225 7.009 2.845 2.678-.386 4.941-2.185 5.921-4.706l6.067-15.607c15.756 22.379 49.802 78.769 49.802 148.129 0 .198-.15 20.007-8.435 43.602-5.827 16.594-14.034 30.778-24.496 42.507 3.353-8.151 5.1-16.897 5.1-25.857v-28.142c0-4.143-3.358-7.5-7.5-7.5s-7.5 3.357-7.5 7.5v28.141c0 10.828-3.254 21.264-9.412 30.178l-18.56 26.88c-.865 1.253-1.328 2.739-1.328 4.262v1.698.052 42.7c0 4.143 3.358 7.5 7.5 7.5s7.5-3.357 7.5-7.5v-37.49c46.239-16.707 80.527-50.389 99.35-97.719 14.631-36.791 14.8-68.518 14.8-69.851.002-50.143-12.555-100.845-37.321-150.698z"/><path d="m300.45 325.27h-44.45c-7.003 0-12.7-5.697-12.7-12.699 0-3.394 1.322-6.586 3.724-8.987 2.394-2.395 5.582-3.713 8.976-3.713h70.71c1.55 0 3.064.157 4.527.453.023.005.047.008.07.013 10.381 2.132 18.212 11.336 18.212 22.334v12.92c0 4.143 3.358 7.5 7.5 7.5s7.5-3.357 7.5-7.5v-12.92c0-16.066-10.082-29.814-24.25-35.276v-33.925c0-7.936-3.092-15.397-8.707-21.014-5.614-5.614-13.077-8.706-21.013-8.706-6.835 0-13.134 2.325-18.161 6.219-1.373-2.586-3.137-4.983-5.266-7.111-5.614-5.615-13.08-8.707-21.023-8.707-11.366 0-21.258 6.419-26.256 15.82-5.186-4.029-11.52-6.221-18.194-6.221-14.252 0-26.189 10.086-29.058 23.494-4.491-2.727-9.757-4.3-15.384-4.3-16.39 0-29.724 13.334-29.724 29.724v55.054 3.535 67.478c0 8.959 1.745 17.703 5.095 25.852-10.461-11.728-18.668-25.912-24.495-42.506-8.284-23.595-8.434-43.403-8.435-43.591 0-30.54 6.497-61.733 19.311-92.714 1.583-3.827-.236-8.214-4.064-9.797-3.828-1.584-8.215.236-9.797 4.064-13.569 32.807-20.449 65.929-20.449 98.446 0 .892.104 22.141 9.103 48.047 4.988 14.358 11.754 27.303 20.115 38.641-18.191-15.755-32.349-36.111-42.308-60.951-13.707-34.188-13.929-64.493-13.93-64.787 0-60.955 20.32-113.705 37.366-147.223 11.191-22.006 22.481-38.846 29.729-48.805l9.325 23.984c.98 2.521 3.243 4.32 5.922 4.706 2.672.378 5.356-.702 7.008-2.845 38.671-50.166 75.299-93.95 89.02-110.177 13.721 16.226 50.341 60 89.02 110.177 1.652 2.144 4.334 3.225 7.008 2.845 2.679-.386 4.941-2.185 5.922-4.706l9.327-23.99c3.937 5.405 9.06 12.832 14.694 21.992 2.17 3.527 6.789 4.629 10.318 2.458 3.528-2.17 4.629-6.789 2.458-10.317-13.164-21.399-23.509-33.591-23.943-34.099-1.713-2.008-4.354-2.971-6.958-2.526-2.602.44-4.781 2.217-5.737 4.677l-9.338 24.019c-45.816-58.845-86.647-106.491-87.079-106.994-1.424-1.66-3.503-2.615-5.691-2.615s-4.267.955-5.691 2.615c-.431.503-41.263 48.148-87.081 106.995l-9.338-24.019c-.956-2.46-3.135-4.235-5.736-4.677-2.602-.443-5.244.519-6.958 2.524-.807.945-19.99 23.588-39.363 61.57-17.884 35.067-39.203 90.324-39.203 154.432 0 1.333.168 33.06 14.8 69.851 18.823 47.33 53.11 81.011 99.349 97.719v37.49c0 4.143 3.358 7.5 7.5 7.5s7.5-3.357 7.5-7.5v-42.677c.001-.039 0-.078 0-.117v-1.653c0-1.522-.463-3.009-1.328-4.262l-18.561-26.881c-6.153-8.911-9.406-19.346-9.406-30.176v-41.673c4.344 2.489 9.368 3.919 14.724 3.919 5.627 0 10.894-1.572 15.385-4.3 2.872 13.406 14.807 23.49 29.057 23.49 6.852 0 13.166-2.336 18.199-6.244.622 1.176 1.322 2.31 2.096 3.395-8.601 8.745-13.646 20.652-13.646 33.559v14.83c0 4.143 3.358 7.5 7.5 7.5s7.5-3.357 7.5-7.5v-14.83c0-13.659 8.214-25.691 20.928-30.653l38.95-15.21c2.878-1.124 4.772-3.897 4.772-6.986v-25.261c.001-4.143-3.357-7.5-7.499-7.5zm10.1-86.52c3.93 0 7.625 1.531 10.406 4.312 2.782 2.782 4.314 6.479 4.314 10.407v31.4h-29.44v-31.4c0-8.115 6.603-14.719 14.72-14.719zm-59.17 5.13c0-8.122 6.604-14.729 14.72-14.729 3.936 0 7.635 1.531 10.417 4.313 2.782 2.781 4.313 6.48 4.313 10.416v9.59 31.4h-24.83c-1.565 0-3.107.136-4.62.389v-31.789zm-74.172 102.1c-8.119 0-14.724-6.605-14.724-14.724v-3.535-55.054c0-8.118 6.605-14.724 14.724-14.724 8.115 0 14.717 6.6 14.723 14.714v58.608c-.006 8.115-6.609 14.715-14.723 14.715zm44.442 19.19c-8.117 0-14.72-6.604-14.72-14.72v-19.174c0-.006 0-.013 0-.019v-58.589c0-.006 0-.013 0-.019v-19.179c0-8.116 6.603-14.72 14.72-14.72 3.936 0 7.635 1.532 10.417 4.312 2.782 2.782 4.313 6.479 4.313 10.407v39.546c-5.21 5.23-8.08 12.172-8.08 19.555 0 7.615 3.09 14.521 8.08 19.533v18.347c0 8.116-6.608 14.72-14.73 14.72zm71.3-12.263-34.177 13.347c-1.645.642-3.235 1.369-4.772 2.168-1.687-2.42-2.621-5.306-2.621-8.372v-9.6-10.573c1.504.254 3.046.393 4.62.393h36.95z"/></g></g></svg>