<svg height="512" viewBox="0 0 58 59" width="512" xmlns="http://www.w3.org/2000/svg"><g id="Page-1" fill="none" fill-rule="evenodd"><g id="050---Fishing" fill="rgb(0,0,0)" fill-rule="nonzero"><path id="Shape" d="m54.32 40.52c-.7725747-1.8781389-1.8325782-3.6246819-3.142-5.177 1.3274421-.8602396 2.0200342-2.4244745 1.7646633-3.985532s-1.4103024-2.8230589-2.9426633-3.215468v-2.326c1.1943509-.4222546 1.9947486-1.5492146 2-2.816v-4c-.0052514-1.2667854-.8056491-2.3937454-2-2.816v-15.184c0-.55228475-.4477153-1-1-1-2.5586749.1947039-5.104366.53323907-7.625 1.014-17.219 2.871-25.924 14.732-29.755 22.086l-.587-.248c-.7333121-.3090899-1.55938591-.3141571-2.29643464-.0140863-.73704872.3000707-1.32467508.8806901-1.63356536 1.6140863l-1.946 4.604c-.61769876 1.4776757.03425455 3.1799738 1.481 3.867l-1.688 4.321c-.70087779.1079451-1.29135574.5807084-1.55 1.241l-3.263 8.258c-.260268.6657644-.14558445 1.4198075.30085047 1.9780884s1.15679712.8359835 1.86350002.7285c.70670291-.1074836 1.30238154-.583824 1.56264951-1.2495884l3.263-8.258c.25742354-.665729.13917978-1.4182933-.31-1.973l1.66-4.25c1.20507283.5671523 2.6397944.2719002 3.523-.725 1.1735983.374245 2.4575972.1003663 3.376345-.720179.9187478-.8205454 1.3354173-2.0655552 1.095655-3.273821 2.481-2.588 3.434-6.4 2.69-10.506l1.785 1.312c.2879561.2115012.666873.2533137.9940165.109687.3271434-.1436266.5528126-.4508721.592-.806.0391874-.3551278-.1140604-.7041858-.4020165-.915687l-1.338-.982c4.0809554-.069065 7.4858642-3.1372387 7.978-7.189l.915 1.5c.1843374.3087696.5202686.4947852.8797974.4871714s.6872838-.2076845.8583839-.5239813c.1711002-.3162968.1591943-.7001064-.0311813-1.0051901l-.817-1.338c4.732 1.472 8.94-.255 11.228-6.173.579-.1 4.078-.722 6.2-.912v14.126c-1.1959285.4209081-1.9981471 1.5481774-2.004 2.816v4c.0052514 1.2667854.8056491 2.3937454 2 2.816v3.184c0 .5522847.4477153 1 1 1 1.1045695 0 2 .8954305 2 2s-.8954305 2-2 2-2-.8954305-2-2c0-.5522847-.4477153-1-1-1s-1 .4477153-1 1c.0049537 1.3643395.7049703 2.6320593 1.857 3.363-5.172 6.324-4.857 11.009-.667 15.927.3414743.3821801.3283594.9636057-.03 1.33-.74.73-1.73 2.25-2.06 5.27-.0333223.3674098.1361284.7238012.4421224.9298788.3059941.2060776.6999451.2291201 1.0278776.0601212 2.1470037-1.2001321 4.7629963-1.2001321 6.91 0 .3266164.1717986.7213043.1497447 1.0267482-.0573714.3054439-.207116.4719884-.5656238.4332518-.9326286-.32-3.02-1.32-4.54-2.05-5.28-.3614249-.3597047-.3789815-.9390709-.04-1.32.9641865-1.1036537 1.7656285-2.3394908 2.38-3.67.1605472-.3720336.5248354-.6148924.93-.62h1.83c.2873798.0020776.5617624-.1195851.7531669-.3339581s.2813271-.5007322.2468331-.7860419c-.2374521-2.2926055-1.6184361-4.3095195-3.67-5.36zm-5.32-16.52c-.5522847 0-1-.4477153-1-1v-1h2v1c0 .5522847-.4477153 1-1 1zm-39.627 7.922-1.841-.777c-.24472438-.1032019-.43834104-.2995188-.53814382-.545649-.09980279-.2461302-.09759232-.5218526.00614382-.766351l1.945-4.6c.21665506-.5073601.80150346-.7455821 1.311-.534 2.025.856 2.279.83 2.412 1.51-1.2639745.1262362-2.3578729.9332171-2.85155268 2.1036219-.49367982 1.1704047-.30818175 2.5170385.48355268 3.5103781-.272835.1863968-.62095444.2235746-.927.099zm6.077-4.774c-.2278786-.2146607-.483891-.3973345-.761-.543.0834702-1.0457852-.3938028-2.0574213-1.254-2.658 1.0582216-2.0165311 2.2711894-3.9479851 3.628-5.777.8513318 3.0824384.2580486 6.3846683-1.613 8.978zm4-11.91c2.205474-2.4802866 4.7223309-4.6650582 7.488-6.5-.484 4.586-3.18 6.654-7.492 6.5zm10.68-8.391c2.9343753-1.53017368 6.0566249-2.66920475 9.287-3.388-2.042 4.109-5.292 5.096-9.291 3.388zm18.87 11.153c.5522847 0 1 .4477153 1 1v1h-2v-1c0-.5522847.4477153-1 1-1zm1 23c-.5522847 0-1-.4477153-1-1s.4477153-1 1-1 1 .4477153 1 1-.4477153 1-1 1z"/></g></g></svg>