<svg id="Outline" height="512" viewBox="0 0 512 512" width="512" xmlns="http://www.w3.org/2000/svg"><path d="m491.383 392.751-115.383-53.846v-130.905a8 8 0 0 0 -1.49-4.65l-13.473-18.862 43.492-72.488h67.471a8 8 0 0 0 4.193-14.813l-104-64a8 8 0 0 0 -6.133-.948c-4.008 1-98.986 25.373-171.717 98.1a7.994 7.994 0 0 0 -2 3.328l-54.958 180.592-116.768 54.492a8 8 0 0 0 -2.517 12.655c.93 1.015 23.251 25.136 63.781 49.454 37.366 22.417 97.902 49.14 174.119 49.14a424.7 424.7 0 0 0 173.283-36.7c40.5-18.224 62.851-36.341 63.783-37.1a8 8 0 0 0 -1.683-13.44zm-286.895-61.351c-25.2-5.478-42.418-12.075-50.814-15.712l8.026-26.37c21.429 8.452 68.235 22.682 140.339 22.682 17.781 0 37.107-.867 57.961-2.9v27.836c-69.428 8.194-122.683 1.603-155.512-5.536zm2.579-191.145c62.092-61.255 142.81-86.78 159.7-91.62l76.969 47.365h-43.736a8 8 0 0 0 -6.86 3.884l-42.24 70.407-16.39-22.941a8 8 0 0 0 -13.02 9.3l38.51 53.913v82.452c-104.935 10.489-169.164-9.166-193.628-19.047zm215.092 288.7a408.715 408.715 0 0 1 -166.159 35.045c-72.31 0-129.852-25.321-165.39-46.564a324.058 324.058 0 0 1 -52.761-39.071l106.074-49.5c7.563 3.512 26.59 11.455 56.36 18 33.256 7.306 66.281 9.856 96.193 9.856a564.076 564.076 0 0 0 70.238-4.488l105.552 49.257a339.923 339.923 0 0 1 -50.107 27.465z"/></svg>