<svg id="Capa_1" enable-background="new 0 0 512 512" height="512" viewBox="0 0 512 512" width="512" xmlns="http://www.w3.org/2000/svg"><path d="m423.39 62.302c-3.13-2.709-7.867-2.368-10.579.766-2.709 3.133-2.366 7.869.767 10.579 53.016 45.856 83.422 112.321 83.422 182.353 0 132.888-108.112 241-241 241s-241-108.112-241-241 108.112-241 241-241c47.496 0 93.441 13.798 132.87 39.904 3.454 2.287 8.107 1.341 10.395-2.113 2.286-3.454 1.34-8.107-2.113-10.394-41.892-27.736-90.702-42.397-141.152-42.397-68.38 0-132.668 26.629-181.02 74.98-48.351 48.353-74.98 112.64-74.98 181.02s26.629 132.667 74.98 181.02c48.352 48.351 112.64 74.98 181.02 74.98s132.668-26.629 181.02-74.98c48.351-48.353 74.98-112.64 74.98-181.02 0-74.391-32.297-144.991-88.61-193.698z"/><path d="m356.53 441.601c-3.642 1.975-4.992 6.527-3.018 10.168 1.975 3.641 6.526 4.993 10.168 3.018 72.983-39.58 118.32-115.751 118.32-198.787 0-60.414-23.497-117.181-66.162-159.844-42.664-42.661-99.429-66.156-159.838-66.156-60.412 0-117.179 23.497-159.843 66.161-42.662 42.664-66.157 99.429-66.157 159.839 0 60.414 23.497 117.181 66.162 159.844 42.664 42.661 99.429 66.156 159.838 66.156 26.649 0 52.734-4.585 77.53-13.627 3.892-1.419 5.896-5.724 4.477-9.615-1.418-3.892-5.723-5.899-9.615-4.477-23.145 8.44-47.5 12.719-72.392 12.719-64.104 0-121.622-28.735-160.352-74h320.912c-16.575 19.437-36.802 36.004-60.03 48.601zm-311.53-185.601c0-12.97 1.176-25.67 3.428-38h143.511c-6.629 11.132-10.439 24.13-10.439 38s3.811 26.868 10.439 38h-143.511c-2.252-12.33-3.428-25.03-3.428-38zm151.5 0c0-32.809 26.691-59.5 59.5-59.5s59.5 26.691 59.5 59.5-26.691 59.5-59.5 59.5-59.5-26.691-59.5-59.5zm123.561-38h143.511c2.251 12.33 3.428 25.03 3.428 38 0 12.886-1.17 25.595-3.433 38h-143.506c6.629-11.132 10.439-24.13 10.439-38s-3.811-26.868-10.439-38zm-64.061-173c64.104 0 121.622 28.735 160.352 74h-256.582c-4.143 0-7.5 3.358-7.5 7.5s3.357 7.5 7.5 7.5h268.296c14.635 20.581 25.675 43.89 32.195 69h-151.954c-13.462-13.287-31.943-21.5-52.307-21.5s-38.845 8.213-52.307 21.5h-151.953c6.52-25.11 17.559-48.419 32.195-69h44.04c4.143 0 7.5-3.358 7.5-7.5s-3.357-7.5-7.5-7.5h-32.327c38.73-45.265 96.248-74 160.352-74zm-172.065 333c-14.635-20.581-25.675-43.89-32.195-69h151.953c13.462 13.287 31.943 21.5 52.307 21.5s38.845-8.213 52.307-21.5h151.955c-6.436 24.861-17.332 48.227-32.035 69z"/></svg>